<?xml version="1.0" encoding="utf-8"?>
<!-- Generator: Adobe Illustrator 19.2.1, SVG Export Plug-In . SVG Version: 6.00 Build 0)  -->
<svg version="1.1" id="Layer_1" xmlns="http://www.w3.org/2000/svg" xmlns:xlink="http://www.w3.org/1999/xlink" x="0px" y="0px"
	 viewBox="0 0 291.4 115" style="enable-background:new 0 0 291.4 115;" xml:space="preserve">
<style type="text/css">
	.st0{fill:#090909;}
</style>
<g>
	<g>
		<path class="st0" d="M80.9,50.7c-5.2,0-8.9,3.7-8.9,8.3s3.7,8.3,8.9,8.3c5.2,0,8.9-3.7,8.9-8.3S86.1,50.7,80.9,50.7z M80.9,62.5
			c-1.8,0-3.7-1.2-3.7-3.6c0-2.4,1.8-3.6,3.7-3.6c1.8,0,3.7,1.2,3.7,3.6C84.5,61.3,82.7,62.5,80.9,62.5z"/>
		<path class="st0" d="M56.1,62.6L53.2,68c-1.8,3.3-5.5,2-5.5-1.2v-0.3h-5.3v0.3c0,8.5,11.3,11.2,15.3,3.8l2.9-5.4
			c1.8-3.3,5.5-2,5.5,1.2h5.3C71.4,57.9,60.2,55.2,56.1,62.6z"/>
		<polygon class="st0" points="100.8,65 97.7,59 91.5,59 100.8,75 109.9,59 104.1,59 		"/>
		<path class="st0" d="M134.7,66.4l-5.8-10.6c-4.7-8.7-17.2-5.7-17.2,3.1c0,9.1,12.1,11.1,15.4,4.1l2,3.4H134.7z M120.5,62.5
			c-1.7,0-3.5-1.2-3.5-3.6c0-2.4,1.8-3.6,3.5-3.6s3.5,1.2,3.5,3.6C124,61.3,122.2,62.5,120.5,62.5z"/>
	</g>
	<path class="st0" d="M179.4,73.8v-9.7c1.4,1.8,3.5,2.6,5.5,2.6c3.7,0,7.4-2.7,7.4-7.7s-3.7-7.7-7.4-7.7c-2.1,0-4.2,0.9-5.5,2.7
		v-2.1h-2.6v21.9H179.4z M174.4,66.5l-2.1-7.6v-7.1h-2.6V54c-1.4-1.8-3.5-2.7-5.5-2.7c-3.7,0-7.4,2.7-7.4,7.7s3.7,7.7,7.4,7.7
		c2.7,0,5.4-1.4,6.5-4.4l1.2,4.2H174.4z M231.8,66.5l-2.1-7.6v-7.1H227V54c-1.4-1.8-3.5-2.7-5.5-2.7c-3.7,0-7.4,2.7-7.4,7.7
		s3.7,7.7,7.4,7.7c2.7,0,5.4-1.4,6.5-4.4l1.2,4.2H231.8z M147.8,53.7c2.2,0,3.8,1.1,4.8,2.9l2.2-1.2c-1.3-2.8-4.1-4.1-7-4.1
		c-4,0-7.8,2.7-7.8,7.7s3.7,7.7,7.8,7.7c2.9,0,5.7-1.4,7-4.1l-2.2-1.2c-1,1.8-2.6,2.9-4.8,2.9c-3.1,0-5.1-2.4-5.1-5.3
		C142.7,55.7,144.7,53.7,147.8,53.7L147.8,53.7z M159.4,59c0-3,2-5.3,5.1-5.3c3.1,0,5.1,2.3,5.1,5.3c0,2.9-2.1,5.3-5.1,5.3
		C161.4,64.3,159.4,62,159.4,59L159.4,59z M216.8,59c0-3,2-5.3,5.1-5.3S227,56,227,59c0,2.9-2.1,5.3-5.1,5.3S216.8,62,216.8,59
		L216.8,59z M184.6,64.4c-3.1,0-5.1-2.4-5.1-5.3c0-3,2-5.3,5.1-5.3s5.1,2.3,5.1,5.3C189.7,62,187.7,64.4,184.6,64.4L184.6,64.4z
		 M200.3,54.2h4.1v4.8c0,5.9,2.2,7.4,6.7,7.4h1.2v-2.4h-1.2c-3.4,0-4.1-1.6-4.1-5v-4.8h5.3v-2.4H207v-4.7h-2.6v4.7h-4.1V54.2z
		 M236.8,66.5V45.2h-2.6v21.2H236.8z M197.6,66.5V51.8H195v14.7H197.6z M194.3,47.4c0,1.1,0.9,1.9,1.9,1.9c1,0,2-0.9,2-1.9
		c0-1-0.9-2-2-2C195.2,45.4,194.3,46.3,194.3,47.4L194.3,47.4z"/>
</g>
</svg>
