<?xml version="1.0" encoding="UTF-8" standalone="no"?>
<svg
   xmlns:dc="http://purl.org/dc/elements/1.1/"
   xmlns:cc="http://creativecommons.org/ns#"
   xmlns:rdf="http://www.w3.org/1999/02/22-rdf-syntax-ns#"
   xmlns:svg="http://www.w3.org/2000/svg"
   xmlns="http://www.w3.org/2000/svg"
   viewBox="0 0 331.37332 74.959999"
   height="74.959999"
   width="331.37332"
   xml:space="preserve"
   id="svg2"
   version="1.1"><metadata
     id="metadata8"><rdf:RDF><cc:Work
         rdf:about=""><dc:format>image/svg+xml</dc:format><dc:type
           rdf:resource="http://purl.org/dc/dcmitype/StillImage" /></cc:Work></rdf:RDF></metadata><defs
     id="defs6" /><g
     transform="matrix(1.3333333,0,0,-1.3333333,0,74.96)"
     id="g10"><g
       transform="scale(0.1)"
       id="g12"><path
         id="path14"
         style="fill:#2eb9aa;fill-opacity:1;fill-rule:nonzero;stroke:none"
         d="m 1821.77,27.1914 c -32.88,0 -54.52,24.9766 -54.52,56.6055 0,32.0511 21.64,57.0231 54.52,57.0231 32.88,0 54.94,-24.972 54.94,-57.0231 0,-31.6289 -22.06,-56.6055 -54.94,-56.6055 z m 83.67,133.6096 h -27.9 v -22.899 c -14.56,19.153 -37.04,28.723 -59.51,28.723 -39.54,0 -79.5,-28.723 -79.5,-82.8281 0,-54.1094 39.96,-82.82815 79.5,-82.82815 29.13,0 57.85,15.40235 69.92,47.44925 l 12.91,-44.95316 h 27.47 l -22.89,81.16406 v 76.1721" /><path
         id="path16"
         style="fill:#2eb9aa;fill-opacity:1;fill-rule:nonzero;stroke:none"
         d="m 2035.3,166.625 c -20.81,0 -41.21,-9.156 -53.69,-27.473 v 21.649 h -27.89 V 3.46484 h 27.89 V 91.707 c 0,27.887 19.56,49.113 48.28,49.113 28.72,0 47.86,-12.902 47.86,-49.113 V 3.46484 h 27.89 V 91.707 c 0,57.438 -35.38,74.918 -70.34,74.918" /><path
         id="path18"
         style="fill:#2eb9aa;fill-opacity:1;fill-rule:nonzero;stroke:none"
         d="m 283.375,428.496 c 5.41,26.641 24.969,42.039 53.27,42.039 28.312,0 48.281,-12.484 53.281,-42.039 z m 53.27,67.844 c -43.282,0 -83.243,-28.719 -83.243,-82.824 0,-54.114 39.961,-82.832 83.243,-82.832 31.222,0 61.601,14.984 75.343,44.535 l -23.73,12.488 c -10.403,-19.562 -28.301,-31.219 -51.613,-31.219 -29.961,0 -50.36,20.817 -54.098,48.285 h 136.93 c 0.421,2.911 0.421,5.825 0.421,8.743 0,54.105 -39.96,82.824 -83.253,82.824" /><path
         id="path20"
         style="fill:#2eb9aa;fill-opacity:1;fill-rule:nonzero;stroke:none"
         d="m 219.566,560.91 h -27.89 V 332.758 h 27.89 V 560.91" /><path
         id="path22"
         style="fill:#2eb9aa;fill-opacity:1;fill-rule:nonzero;stroke:none"
         d="m 526.137,356.488 c -32.891,0 -54.539,24.981 -54.539,56.625 0,32.055 21.648,57.035 54.539,57.035 32.89,0 54.953,-24.98 54.953,-57.035 0,-31.644 -22.063,-56.625 -54.953,-56.625 z m 83.683,133.649 h -27.89 v -22.672 c -40.129,52.406 -139.063,30.965 -139.063,-54.352 0,-94.359 121.035,-110.629 149.649,-35.222 l 12.722,-45.133 h 27.481 l -22.899,81.187 v 76.192" /><path
         id="path24"
         style="fill:#2eb9aa;fill-opacity:1;fill-rule:nonzero;stroke:none"
         d="M 3.32422,137.016 H 47.75 V 5.8125 H 75.5625 V 137.016 h 57.3045 v 25.742 H 75.5625 v 3.32 c 0,23.668 7.8906,41.52 38.2035,41.52 h 19.101 v 25.742 h -19.101 c -40.2738,0 -66.016,-20.758 -66.016,-67.676 v -2.906 H 3.32422 v -25.742" /><path
         id="path26"
         style="fill:#2eb9aa;fill-opacity:1;fill-rule:nonzero;stroke:none"
         d="m 1328.64,136.527 h 44.42 V 5.32422 h 27.81 V 136.527 h 57.31 v 25.743 h -57.31 v 3.32 c 0,23.668 7.9,41.519 38.21,41.519 h 19.1 v 25.743 h -19.1 c -40.28,0 -66.02,-20.758 -66.02,-67.676 v -2.906 h -44.42 v -25.743" /><path
         id="path28"
         style="fill:#2eb9aa;fill-opacity:1;fill-rule:nonzero;stroke:none"
         d="m 83.043,469.766 c 23.254,0 41.102,-11.621 51.484,-31.141 l 23.661,12.457 c -13.7,29.477 -44.012,44.426 -75.145,44.426 -43.1836,0 -83.04690625,-28.649 -83.04690625,-82.625 0,-53.973 39.86330625,-82.621 83.04690625,-82.621 31.133,0 61.445,14.945 75.145,44.426 l -23.661,12.453 c -10.382,-19.512 -28.23,-31.137 -51.484,-31.137 -32.8047,0 -54.3946,25.328 -54.3946,56.879 0,36.125 21.5899,56.883 54.3946,56.883 v 0" /><path
         id="path30"
         style="fill:#2eb9aa;fill-opacity:1;fill-rule:nonzero;stroke:none"
         d="m 2348.77,99.2031 c 5.41,26.6409 24.97,42.0389 53.28,42.0389 28.3,0 48.28,-12.484 53.27,-42.0389 z m 53.28,67.8479 c -43.29,0 -83.26,-28.723 -83.26,-82.8283 0,-54.1133 39.97,-82.83207 83.26,-82.83207 31.21,0 61.59,14.98437 75.33,44.53517 l -23.72,12.4922 c -10.41,-19.5664 -28.31,-31.2227 -51.61,-31.2227 -29.97,0 -50.37,20.8164 -54.11,48.2852 h 136.93 c 0.42,2.9101 0.42,5.8281 0.42,8.7422 0,54.1053 -39.96,82.8283 -83.24,82.8283" /><path
         id="path32"
         style="fill:#2eb9aa;fill-opacity:1;fill-rule:nonzero;stroke:none"
         d="m 874.898,99.6914 c 5.411,26.6406 24.969,42.0386 53.274,42.0386 28.308,0 48.277,-12.484 53.277,-42.0386 z m 53.274,67.8476 c -43.285,0 -83.246,-28.723 -83.246,-82.8281 0,-54.1132 39.961,-82.83199 83.246,-82.83199 31.219,0 61.598,14.98439 75.338,44.53519 L 979.781,58.9063 C 969.379,39.3398 951.48,27.6836 928.172,27.6836 c -29.961,0 -50.363,20.8164 -54.106,48.2852 H 1011 c 0.42,2.9101 0.42,5.8281 0.42,8.7421 0,54.1051 -39.959,82.8281 -83.248,82.8281" /><path
         id="path34"
         style="fill:#2eb9aa;fill-opacity:1;fill-rule:nonzero;stroke:none"
         d="m 425.348,140.961 c 23.25,0 41.101,-11.625 51.484,-31.137 l 23.66,12.453 c -13.699,29.481 -44.004,44.426 -75.144,44.426 -43.184,0 -83.039,-28.648 -83.039,-82.621 0,-53.9765 39.855,-82.62497 83.039,-82.62497 31.14,0 61.445,14.94927 75.144,44.42577 l -23.66,12.457 C 466.449,38.8281 448.598,27.1992 425.348,27.1992 c -32.801,0 -54.395,25.3281 -54.395,56.8828 0,36.121 21.594,56.879 54.395,56.879 v 0" /><path
         id="path36"
         style="fill:#2eb9aa;fill-opacity:1;fill-rule:nonzero;stroke:none"
         d="m 2220.68,140.473 c 23.25,0 41.11,-11.621 51.48,-31.137 l 23.68,12.457 c -13.71,29.477 -44.02,44.422 -75.16,44.422 -43.17,0 -83.04,-28.649 -83.04,-82.6212 0,-53.9766 39.87,-82.62505 83.04,-82.62505 31.14,0 61.45,14.94925 75.16,44.42575 l -23.68,12.4571 c -10.37,-19.5118 -28.23,-31.1407 -51.48,-31.1407 -32.79,0 -54.39,25.3282 -54.39,56.8829 0,36.1212 21.6,56.8792 54.39,56.8792 v 0" /><path
         id="path38"
         style="fill:#2eb9aa;fill-opacity:1;fill-rule:nonzero;stroke:none"
         d="m 645.629,5.8125 h 27.812 V 162.758 H 645.629 V 74.7344 c 0,-27.8164 -19.52,-48.9922 -48.164,-48.9922 -28.652,0 -47.754,12.8711 -47.754,48.9922 V 162.758 H 521.898 V 74.7344 C 521.898,17.4414 557.191,0 592.066,0 c 20.762,0 41.106,9.13281 53.563,27.4063 V 5.8125" /><path
         id="path40"
         style="fill:#2eb9aa;fill-opacity:1;fill-rule:nonzero;stroke:none"
         d="m 229.652,26.1563 c -32.8,0 -54.394,24.9101 -54.394,56.4687 0,31.969 21.594,56.879 54.394,56.879 32.793,0 54.387,-24.91 54.387,-56.879 0,-31.5586 -21.594,-56.4687 -54.387,-56.4687 z m 0,139.0897 c -43.183,0 -83.047,-28.644 -83.047,-82.621 C 146.605,28.6523 186.469,0 229.652,0 c 43.176,0 83.039,28.6523 83.039,82.625 0,53.977 -39.863,82.621 -83.039,82.621" /><path
         id="path42"
         style="fill:#2eb9aa;fill-opacity:1;fill-rule:nonzero;stroke:none"
         d="M 693.07,488.164 H 665.258 V 331.219 h 27.812 v 73.906 c 0,54.391 17.852,68.508 53.145,61.445 l 2.082,24.914 c -31.555,10.379 -45.676,-6.64 -55.227,-35.289 v 31.969" /><path
         id="path44"
         style="fill:#2eb9aa;fill-opacity:1;fill-rule:nonzero;stroke:none"
         d="m 1581.96,162.27 h -27.82 V 5.32422 h 27.82 V 93.3477 c 0,27.8203 19.51,48.9883 48.16,48.9883 28.65,0 47.75,-12.871 47.75,-48.9883 V 5.32422 h 27.82 V 93.3477 c 0,57.2973 -35.29,74.7303 -70.17,74.7303 -20.76,0 -41.11,-9.129 -53.56,-27.402 v 21.594" /><path
         id="path46"
         style="fill:#2eb9aa;fill-opacity:1;fill-rule:nonzero;stroke:none"
         d="M 1518.01,5.32422 V 162.27 H 1490.2 V 5.32422 h 27.81" /><path
         id="path48"
         style="fill:#2eb9aa;fill-opacity:1;fill-rule:nonzero;stroke:none"
         d="m 1483.14,210.02 c 0,-11.629 9.13,-20.762 20.76,-20.762 11.21,0 21.17,9.133 21.17,20.762 0,11.21 -9.96,21.171 -21.17,21.171 -11.63,0 -20.76,-9.961 -20.76,-21.171 v 0" /><path
         id="path50"
         style="fill:#2eb9aa;fill-opacity:1;fill-rule:nonzero;stroke:none"
         d="m 1139.61,458.879 c 0,11.242 8.33,17.066 20.82,17.066 14.57,0 24.98,-8.738 35.38,-19.558 l 17.48,15.812 c -14.15,14.989 -29.97,25.809 -52.86,25.809 -27.48,0 -51.2,-12.906 -51.2,-41.621 0,-51.614 80.34,-42.871 80.34,-78.254 0,-14.149 -12.07,-21.227 -26.64,-21.227 -15.4,0 -33.72,7.907 -42.88,24.559 l -23.31,-14.152 c 12.9,-23.727 40.37,-35.379 65.77,-35.379 30.39,0 58.69,16.234 58.69,48.281 0,53.695 -81.59,48.281 -81.59,78.664" /><path
         id="path52"
         style="fill:#2eb9aa;fill-opacity:1;fill-rule:nonzero;stroke:none"
         d="m 738.344,128.195 c 0,11.243 8.324,17.067 20.812,17.067 14.559,0 24.973,-8.739 35.379,-19.559 l 17.481,15.813 c -14.161,14.98 -29.969,25.808 -52.86,25.808 -27.472,0 -51.203,-12.906 -51.203,-41.621 0,-51.6171 80.332,-42.871 80.332,-78.2538 0,-14.1484 -12.07,-21.2304 -26.64,-21.2304 -15.399,0 -33.711,7.9101 -42.872,24.5625 l -23.3,-14.1524 C 708.375,12.9023 735.844,1.25 761.234,1.25 c 30.383,0 58.684,16.2305 58.684,48.2813 0,53.6917 -81.574,48.2812 -81.574,78.6637" /><path
         id="path54"
         style="fill:#2eb9aa;fill-opacity:1;fill-rule:nonzero;stroke:none"
         d="M 927.465,359.75 873.082,490.949 H 844.02 l 67.253,-156.941 h 31.145 l 67.252,156.941 H 981.859 L 927.465,359.75" /><path
         id="path56"
         style="fill:#2eb9aa;fill-opacity:1;fill-rule:nonzero;stroke:none"
         d="m 1037.71,334.008 h 27.82 v 156.941 h -27.82 V 334.008" /><path
         id="path58"
         style="fill:#2eb9aa;fill-opacity:1;fill-rule:nonzero;stroke:none"
         d="m 1051.41,562.156 c -11.62,0 -20.76,-9.965 -20.76,-21.176 0,-11.625 9.14,-20.757 20.76,-20.757 11.21,0 21.17,9.132 21.17,20.757 0,11.211 -9.96,21.176 -21.17,21.176" /><path
         id="path60"
         style="fill:#2eb9aa;fill-opacity:1;fill-rule:nonzero;stroke:none"
         d="m 1585.6,496.766 c -20.76,0 -41.11,-9.137 -53.56,-27.407 v 21.59 h -27.83 V 334.008 h 27.83 v 88.023 c 0,27.817 19.51,48.992 48.16,48.992 28.64,0 47.74,-12.871 47.74,-48.992 v -88.023 h 27.83 v 88.023 c 0,57.293 -35.3,74.735 -70.17,74.735" /><path
         id="path62"
         style="fill:#2eb9aa;fill-opacity:1;fill-rule:nonzero;stroke:none"
         d="m 1393.36,357.676 c -32.8,0 -54.39,24.91 -54.39,56.465 0,31.972 21.59,56.882 54.39,56.882 32.8,0 54.39,-24.91 54.39,-56.882 0,-31.555 -21.59,-56.465 -54.39,-56.465 z m 0,139.09 c -43.18,0 -83.04,-28.653 -83.04,-82.625 0,-53.977 39.86,-82.625 83.04,-82.625 43.18,0 83.04,28.648 83.04,82.625 0,53.972 -39.86,82.625 -83.04,82.625" /><path
         id="path64"
         style="fill:#2eb9aa;fill-opacity:1;fill-rule:nonzero;stroke:none"
         d="m 1254.68,334.008 h 27.83 v 156.941 h -27.83 V 334.008" /><path
         id="path66"
         style="fill:#2eb9aa;fill-opacity:1;fill-rule:nonzero;stroke:none"
         d="m 1275.77,560.832 c -14.9,5.344 -28.14,-6.352 -28.14,-19.852 0,-11.625 9.13,-20.757 20.75,-20.757 13.51,0 25.2,13.242 19.86,28.136 -2.06,5.746 -6.73,10.414 -12.47,12.473" /><path
         id="path68"
         style="fill:#2eb9aa;fill-opacity:1;fill-rule:nonzero;stroke:none"
         d="m 1722.12,333.625 c -5.55,0 -10.35,1.707 -14.39,5.117 -4.04,3.41 -6.05,8.184 -6.05,14.328 0,5.301 1.97,9.762 5.92,13.379 3.96,3.621 8.64,5.43 14.02,5.43 4.04,0 7.7,-1.094 10.98,-3.281 3.28,-2.188 5.85,-5.407 7.7,-9.66 1.85,-4.247 2.78,-9.485 2.78,-15.715 0,-8.332 -1.77,-16.141 -5.3,-23.418 -3.54,-7.278 -7.85,-13.043 -12.94,-17.297 -5.1,-4.246 -9.7,-6.371 -13.83,-6.371 -2.61,0 -4.73,0.859 -6.38,2.586 0,0 17.75,11.691 17.49,34.902" /><path
         id="path70"
         style="fill:#2eb9aa;fill-opacity:1;fill-rule:nonzero;stroke:none"
         d="m 1121.57,27.1875 c -32.89,0 -54.53,24.9805 -54.53,56.6211 0,32.0584 21.64,57.0394 54.53,57.0394 32.9,0 54.96,-24.981 54.96,-57.0394 0,-31.6406 -22.06,-56.6211 -54.96,-56.6211 z m 83.69,205.1755 h -27.9 v -94.207 c -40.12,52.41 -139.05,30.973 -139.05,-54.3474 0,-94.3555 121.02,-110.625 149.63,-35.2227 l 12.74,-45.12887 h 27.48 l -22.9,81.18357 V 232.363" /></g></g></svg>